<svg width="522" height="513" viewBox="0 0 522 513" fill="none" xmlns="http://www.w3.org/2000/svg">
<rect width="521" height="512" transform="translate(0.5 0.202377)" fill="black"/>
<path d="M155.242 254.2H123.242V127.6H179.642C192.309 127.6 202.442 129.133 210.042 132.2C217.642 135.267 223.109 140.267 226.442 147.2C229.776 154.133 231.442 163.533 231.442 175.4C231.442 186.6 229.776 195.733 226.442 202.8C223.109 209.733 217.642 214.867 210.042 218.2C202.442 221.533 192.309 223.2 179.642 223.2H155.242V254.2ZM174.442 153.8H155.242V197H174.442C183.909 197 190.242 195.4 193.442 192.2C196.642 189 198.242 183.4 198.242 175.4C198.242 167.8 196.642 162.333 193.442 159C190.242 155.533 183.909 153.8 174.442 153.8ZM374.238 127.6H406.838L380.038 254.2H341.038C336.904 239.933 333.304 226 330.238 212.4C327.304 198.8 324.504 184.267 321.838 168.8H321.438C318.371 184.267 315.304 198.8 312.238 212.4C309.304 226 305.971 239.933 302.238 254.2H263.238L236.438 127.6H269.038C271.038 136.933 272.838 146.067 274.438 155C276.038 163.933 277.571 173.067 279.038 182.4C280.638 191.6 282.238 201.6 283.837 212.4H284.238C286.238 201.6 288.171 191.6 290.038 182.4C291.904 173.067 293.838 163.933 295.838 155C297.838 146.067 299.971 136.933 302.238 127.6H341.038C344.104 141.733 347.104 155.867 350.037 170C353.104 184.133 356.104 198.267 359.038 212.4H359.438C361.971 198.267 364.438 184.133 366.838 170C369.238 155.867 371.704 141.733 374.238 127.6ZM105.489 390.6C101.089 388.733 97.8891 386.333 95.8891 383.4C93.8891 380.467 92.8891 376.933 92.8891 372.8C92.8891 369.067 93.8891 365.8 95.8891 363C98.0224 360.2 100.822 358 104.289 356.4V355.8C100.956 353.133 98.4891 349.8 96.8891 345.8C95.4224 341.667 94.6891 336.933 94.6891 331.6C94.6891 320.933 98.1557 312.8 105.089 307.2C112.022 301.6 124.022 298.8 141.089 298.8C155.089 298.8 165.756 300.8 173.089 304.8H174.089C176.222 301.333 178.956 298.467 182.289 296.2C185.622 293.933 189.689 292.8 194.489 292.8C195.956 292.8 197.289 292.867 198.489 293C199.689 293 200.822 293.067 201.889 293.2V317.8C199.356 317.267 196.356 317 192.889 317C190.089 317 187.422 317.267 184.889 317.8C186.356 321.667 187.089 326.267 187.089 331.6C187.089 343.067 183.622 351.333 176.689 356.4C169.756 361.467 157.889 364 141.089 364C137.222 364 133.622 363.867 130.289 363.6C126.956 363.333 123.889 362.933 121.089 362.4C120.556 363.467 120.289 364.733 120.289 366.2C120.289 368.333 120.956 370.133 122.289 371.6C123.756 372.933 126.222 373.6 129.689 373.6H158.489C170.756 373.6 179.889 375.533 185.889 379.4C192.022 383.267 195.089 390.733 195.089 401.8C195.089 412.733 190.822 421.067 182.289 426.8C173.756 432.533 159.356 435.4 139.089 435.4C122.422 435.4 110.289 433.133 102.689 428.6C95.0891 424.2 91.2891 417.733 91.2891 409.2C91.2891 404.533 92.5557 400.667 95.0891 397.6C97.6224 394.4 101.089 392.267 105.489 391.2V390.6ZM141.089 342.6C147.356 342.6 151.756 341.867 154.289 340.4C156.822 338.8 158.089 336 158.089 332C158.089 328 156.822 325.067 154.289 323.2C151.756 321.333 147.356 320.4 141.089 320.4C134.689 320.4 130.222 321.333 127.689 323.2C125.156 325.067 123.889 328 123.889 332C123.889 336 125.156 338.8 127.689 340.4C130.222 341.867 134.689 342.6 141.089 342.6ZM142.889 411.8C149.956 411.8 155.156 411.467 158.489 410.8C161.822 410.133 164.022 409.133 165.089 407.8C166.156 406.467 166.689 404.8 166.689 402.8C166.689 400.533 166.022 398.733 164.689 397.4C163.356 395.933 161.356 395.2 158.689 395.2H128.089C125.422 395.2 123.422 395.933 122.089 397.4C120.756 398.733 120.089 400.533 120.089 402.8C120.089 404.8 120.622 406.467 121.689 407.8C122.889 409.133 125.089 410.133 128.289 410.8C131.622 411.467 136.489 411.8 142.889 411.8ZM323.961 396.6V397.2H289.961C289.028 394 287.894 390.333 286.561 386.2C285.361 382.067 284.028 377.667 282.561 373H239.361C236.694 382.333 234.228 390.4 231.961 397.2H197.961V396.8L238.961 270.6H282.961L323.961 396.6ZM260.561 293.4C259.228 300.2 257.294 308.467 254.761 318.2C252.228 327.933 249.561 337.867 246.761 348H275.361C272.428 337.867 269.694 327.933 267.161 318.2C264.628 308.467 262.694 300.2 261.361 293.4H260.561ZM341.239 390.6C336.839 388.733 333.639 386.333 331.639 383.4C329.639 380.467 328.639 376.933 328.639 372.8C328.639 369.067 329.639 365.8 331.639 363C333.772 360.2 336.572 358 340.039 356.4V355.8C336.706 353.133 334.239 349.8 332.639 345.8C331.172 341.667 330.439 336.933 330.439 331.6C330.439 320.933 333.906 312.8 340.839 307.2C347.772 301.6 359.772 298.8 376.839 298.8C390.839 298.8 401.506 300.8 408.839 304.8H409.839C411.972 301.333 414.706 298.467 418.039 296.2C421.372 293.933 425.439 292.8 430.239 292.8C431.706 292.8 433.039 292.867 434.239 293C435.439 293 436.572 293.067 437.639 293.2V317.8C435.106 317.267 432.106 317 428.639 317C425.839 317 423.172 317.267 420.639 317.8C422.106 321.667 422.839 326.267 422.839 331.6C422.839 343.067 419.372 351.333 412.439 356.4C405.506 361.467 393.639 364 376.839 364C372.972 364 369.372 363.867 366.039 363.6C362.706 363.333 359.639 362.933 356.839 362.4C356.306 363.467 356.039 364.733 356.039 366.2C356.039 368.333 356.706 370.133 358.039 371.6C359.506 372.933 361.972 373.6 365.439 373.6H394.239C406.506 373.6 415.639 375.533 421.639 379.4C427.772 383.267 430.839 390.733 430.839 401.8C430.839 412.733 426.572 421.067 418.039 426.8C409.506 432.533 395.106 435.4 374.839 435.4C358.172 435.4 346.039 433.133 338.439 428.6C330.839 424.2 327.039 417.733 327.039 409.2C327.039 404.533 328.306 400.667 330.839 397.6C333.372 394.4 336.839 392.267 341.239 391.2V390.6ZM376.839 342.6C383.106 342.6 387.506 341.867 390.039 340.4C392.572 338.8 393.839 336 393.839 332C393.839 328 392.572 325.067 390.039 323.2C387.506 321.333 383.106 320.4 376.839 320.4C370.439 320.4 365.972 321.333 363.439 323.2C360.906 325.067 359.639 328 359.639 332C359.639 336 360.906 338.8 363.439 340.4C365.972 341.867 370.439 342.6 376.839 342.6ZM378.639 411.8C385.706 411.8 390.906 411.467 394.239 410.8C397.572 410.133 399.772 409.133 400.839 407.8C401.906 406.467 402.439 404.8 402.439 402.8C402.439 400.533 401.772 398.733 400.439 397.4C399.106 395.933 397.106 395.2 394.439 395.2H363.839C361.172 395.2 359.172 395.933 357.839 397.4C356.506 398.733 355.839 400.533 355.839 402.8C355.839 404.8 356.372 406.467 357.439 407.8C358.639 409.133 360.839 410.133 364.039 410.8C367.372 411.467 372.239 411.8 378.639 411.8Z" fill="white"/>
</svg>
